
<svg width="65px" height="65px" viewBox="0 0 76 76" version="1.1" xmlns="http://www.w3.org/2000/svg" xmlns:xlink="http://www.w3.org/1999/xlink">
    <!-- Generator: Sketch 41.2 (35397) - http://www.bohemiancoding.com/sketch -->
    <desc>Created with Sketch.</desc>
    <defs></defs>
    <polygon id="Fill-56" stroke="none" fill="#369ECD" fill-rule="evenodd" points="0 76 76 76 76 0 0 0"></polygon>
    <path d="M63.4002702,22.2878989 C61.5335669,23.1159167 59.5275423,23.6746522 57.423589,23.9247721 C59.5719636,22.637865 61.2246371,20.6026155 61.9989808,18.1740323 C59.990937,19.3651273 57.7648252,20.2314699 55.3933347,20.6984275 C53.494325,18.6762891 50.7886653,17.4145957 47.7962864,17.4145957 C42.0497883,17.4145957 37.3895923,22.0690441 37.3895923,27.8096984 C37.3895923,28.6256136 37.4824732,29.4173237 37.6581391,30.1777688 C29.0111334,29.7461103 21.3444245,25.6080385 16.210738,19.3157084 C15.316255,20.8537439 14.8023816,22.637865 14.8023816,24.5440205 C14.8023816,28.1485705 16.6387976,31.3325561 19.4302712,33.1953439 C17.7250998,33.1428994 16.1208859,32.6729161 14.7175773,31.8953258 L14.7175773,32.026437 C14.7175773,37.0621164 18.3056052,41.2637267 23.0637299,42.2188215 C22.1924671,42.4558303 21.2707255,42.585933 20.3217255,42.585933 C19.6533872,42.585933 18.9991829,42.5183603 18.3651701,42.396326 C19.6887223,46.527338 23.5311629,49.5307935 28.084344,49.6175286 C24.5255938,52.4051548 20.0390446,54.0672417 15.159771,54.0672417 C14.3218241,54.0672417 13.493973,54.0168143 12.680256,53.9220108 C17.2849253,56.8689876 22.7548001,58.5905788 28.6335525,58.5905788 C47.7730662,58.5905788 58.2393253,42.7533519 58.2393253,29.0149131 C58.2393253,28.5651008 58.2272104,28.1173055 58.2100476,27.6674932 C60.2392924,26.2050988 62.0020095,24.3735759 63.4002702,22.2878989" id="Fill-57" stroke="none" fill="#FFFFFF" fill-rule="evenodd"></path>
</svg>