<svg width="76px" height="76px" viewBox="-4 -4 40 40" version="1.1" xmlns="http://www.w3.org/2000/svg" xmlns:xlink="http://www.w3.org/1999/xlink">
    <!-- Generator: Sketch 41.2 (35397) - http://www.bohemiancoding.com/sketch -->
    <desc>Created with Sketch.</desc>
    <defs></defs>
    <g id="1483477509_add" stroke="none" stroke-width="1" fill="none" fill-rule="evenodd" transform="translate(16.000000, 16.000000) rotate(45.000000) translate(-16.000000, -16.000000) translate(2.000000, 2.000000)">
        <path d="M26,12 L16,12 L16,2 C16,0.896 15.104,0 14,0 C12.896,0 12,0.896 12,2 L12,12 L2,12 C0.896,12 0,12.896 0,14 C0,15.104 0.896,16 2,16 L12,16 L12,26 C12,27.104 12.896,28 14,28 C15.104,28 16,27.104 16,26 L16,16 L26,16 C27.104,16 28,15.104 28,14 C28,12.896 27.104,12 26,12 Z" id="Shape" fill="#FF8C00"></path>
    </g>
</svg>