
<svg width="65px" height="65px" viewBox="0 0 76 76" version="1.1" xmlns="http://www.w3.org/2000/svg" xmlns:xlink="http://www.w3.org/1999/xlink">
    <desc>linkedin</desc>
    <defs></defs>
    <polygon id="Fill-53" stroke="none" fill="#1A71A2" fill-rule="evenodd" points="0 76 76 76 76 0 0 0"></polygon>
    <path d="M12.986751,63.7379143 L23.6954074,63.7379143 L23.6954074,29.3164174 L12.986751,29.3164174 L12.986751,63.7379143 Z M18.3446041,12.204425 C21.7687959,12.204425 24.5444055,14.9857158 24.5444055,18.4058973 C24.5444055,21.8301097 21.7687959,24.6114005 18.3446041,24.6114005 C14.909334,24.6114005 12.13876,21.8301097 12.13876,18.4058973 C12.13876,14.9857158 14.909334,12.204425 18.3446041,12.204425 L18.3446041,12.204425 Z" id="Fill-54" stroke="none" fill="#FFFFFF" fill-rule="evenodd"></path>
    <path d="M30.4088375,29.3164174 L40.6632849,29.3164174 L40.6632849,34.0204267 L40.8093166,34.0204267 C42.2353918,31.312699 45.7280675,28.4608682 50.932839,28.4608682 C61.7573136,28.4608682 63.7594587,35.5864143 63.7594587,44.8573837 L63.7594587,63.7379143 L53.0709447,63.7379143 L53.0709447,47.0028069 C53.0709447,43.0072207 52.9923897,37.8719098 47.5106614,37.8719098 C41.9423213,37.8719098 41.0943302,42.220196 41.0943302,46.7075467 L41.0943302,63.7379143 L30.4088375,63.7379143 L30.4088375,29.3164174" id="Fill-55" stroke="none" fill="#FFFFFF" fill-rule="evenodd"></path>
</svg>